<svg width="804" height="833" viewBox="0 0 804 833" fill="none" xmlns="http://www.w3.org/2000/svg">
<g clip-path="url(#clip0)">
<path opacity="0.4" d="M391.527 674.383C526.72 704.481 660.41 620.654 690.133 487.15C719.855 353.645 634.355 221.019 499.162 190.92C363.968 160.821 230.278 244.649 200.555 378.153C170.833 511.658 256.333 644.284 391.527 674.383Z" stroke="#3AD29F" stroke-width="5" stroke-miterlimit="10" stroke-dasharray="12 12"/>
<path opacity="0.4" d="M404.307 616.977C507.395 639.928 609.337 576.008 632.001 474.207C654.665 372.407 589.469 271.276 486.381 248.326C383.293 225.375 281.351 289.295 258.687 391.095C236.023 492.895 301.219 594.026 404.307 616.977Z" stroke="#3AD29F" stroke-width="5" stroke-miterlimit="10" stroke-dasharray="12 12"/>
<path d="M760.704 536.281C761.06 536.348 761.427 536.275 761.729 536.079C762.03 535.883 762.242 535.578 762.32 535.229C762.397 534.88 762.335 534.514 762.145 534.209C761.956 533.903 761.654 533.681 761.303 533.591C760.947 533.524 760.58 533.597 760.278 533.793C759.977 533.989 759.765 534.294 759.687 534.643C759.61 534.992 759.672 535.358 759.862 535.664C760.052 535.969 760.354 536.191 760.704 536.281Z" fill="#F5F5F5"/>
<g opacity="0.5">
<path opacity="0.5" d="M723.651 746.136C722.02 744.337 719.791 743.176 717.372 742.867C714.954 742.557 712.508 743.119 710.484 744.45C708.277 745.967 706.761 748.279 706.258 750.893C705.754 753.508 706.303 756.219 707.788 758.45L717.426 773.309C717.729 773.775 718.206 774.105 718.752 774.225C719.299 774.345 719.87 774.246 720.34 773.949L735.318 764.499C737.601 763.096 739.235 760.865 739.874 758.28C740.512 755.695 740.105 752.961 738.737 750.658C737.457 748.601 735.472 747.065 733.147 746.333C730.821 745.6 728.311 745.719 726.076 746.669C725.668 746.842 725.214 746.884 724.779 746.788C724.344 746.693 723.949 746.465 723.651 746.136Z" fill="#6C63FF"/>
</g>
<g opacity="0.5">
<path opacity="0.5" d="M79.6738 564.167C78.0429 562.368 75.8138 561.207 73.3954 560.897C70.9769 560.588 68.5312 561.15 66.5068 562.48C64.3003 563.998 62.7842 566.31 62.2807 568.924C61.7773 571.539 62.3263 574.25 63.811 576.481L73.4491 591.34C73.7517 591.806 74.2287 592.136 74.7752 592.256C75.3216 592.376 75.8928 592.276 76.363 591.98L91.3407 582.53C93.6236 581.127 95.2582 578.896 95.8969 576.311C96.5355 573.726 96.1278 570.991 94.7605 568.689C93.4802 566.632 91.4952 565.096 89.1696 564.363C86.8441 563.631 84.3338 563.75 82.0991 564.7C81.6907 564.873 81.2369 564.915 80.8017 564.819C80.3666 564.724 79.9721 564.495 79.6738 564.167Z" fill="#6C63FF"/>
</g>
<g opacity="0.5">
<path opacity="0.5" d="M221.206 82.6024C219.575 80.8035 217.346 79.6427 214.928 79.3329C212.509 79.0232 210.064 79.5852 208.039 80.916C205.833 82.4335 204.316 84.7453 203.813 87.3598C203.31 89.9744 203.859 92.6853 205.343 94.9164L214.981 109.775C215.284 110.242 215.761 110.571 216.307 110.691C216.854 110.811 217.425 110.712 217.895 110.415L232.873 100.965C235.156 99.5623 236.791 97.3311 237.429 94.7463C238.068 92.1615 237.66 89.427 236.293 87.1242C235.012 85.0672 233.027 83.5317 230.702 82.799C228.376 82.0664 225.866 82.1858 223.631 83.1353C223.223 83.3085 222.769 83.3502 222.334 83.2546C221.899 83.159 221.504 82.9309 221.206 82.6024Z" fill="#FF0000"/>
</g>
<g opacity="0.5">
<path opacity="0.5" d="M735.011 155.57C733.38 153.771 731.151 152.611 728.733 152.301C726.314 151.991 723.869 152.553 721.844 153.884C719.638 155.401 718.122 157.713 717.618 160.328C717.115 162.942 717.664 165.653 719.148 167.884L728.787 182.743C729.089 183.21 729.566 183.539 730.113 183.659C730.659 183.779 731.23 183.68 731.7 183.383L746.678 173.933C748.961 172.53 750.596 170.299 751.234 167.714C751.873 165.129 751.465 162.395 750.098 160.092C748.818 158.035 746.833 156.5 744.507 155.767C742.182 155.034 739.671 155.154 737.437 156.103C737.028 156.276 736.574 156.318 736.139 156.222C735.704 156.127 735.31 155.899 735.011 155.57Z" fill="#FF0404"/>
</g>
<g opacity="0.5">
<path opacity="0.5" d="M576.615 95.664L573.89 95.0574L570.495 110.306L573.22 110.912L576.615 95.664Z" fill="#3AD29F"/>
<path opacity="0.5" d="M580.976 106.049L581.575 103.358L566.134 99.9205L565.535 102.611L580.976 106.049Z" fill="#3AD29F"/>
</g>
<g opacity="0.5">
<path opacity="0.5" d="M137.06 203.034L134.335 202.427L130.94 217.676L133.665 218.282L137.06 203.034Z" fill="#3AD29F"/>
<path opacity="0.5" d="M141.421 213.419L142.02 210.728L126.579 207.29L125.98 209.981L141.421 213.419Z" fill="#3AD29F"/>
</g>
<g opacity="0.5">
<path opacity="0.5" d="M545.974 768.548L543.25 767.941L539.855 783.19L542.58 783.797L545.974 768.548Z" fill="#3AD29F"/>
<path opacity="0.5" d="M550.336 778.933L550.935 776.242L535.493 772.805L534.894 775.496L550.336 778.933Z" fill="#3AD29F"/>
</g>
<g opacity="0.5">
<path opacity="0.5" d="M90.4285 455.309L87.7035 454.702L84.3087 469.95L87.0336 470.557L90.4285 455.309Z" fill="#3AD29F"/>
<path opacity="0.5" d="M94.7897 465.694L95.3887 463.003L79.9475 459.565L79.3484 462.256L94.7897 465.694Z" fill="#3AD29F"/>
</g>
<g opacity="0.5">
<path opacity="0.5" d="M254.381 515.345L251.656 514.739L248.261 529.987L250.986 530.594L254.381 515.345Z" fill="#3AD29F"/>
<path opacity="0.5" d="M258.742 525.731L259.341 523.04L243.9 519.602L243.301 522.293L258.742 525.731Z" fill="#3AD29F"/>
</g>
<path opacity="0.5" d="M171.145 636.98C170.466 636.49 169.992 635.771 169.813 634.96C169.633 634.149 169.761 633.303 170.173 632.583C170.238 632.473 170.289 632.356 170.326 632.233C170.427 631.884 170.411 631.511 170.281 631.17C170.151 630.829 169.913 630.538 169.603 630.34C169.293 630.141 168.927 630.047 168.56 630.07C168.192 630.094 167.843 630.233 167.563 630.469C167.467 630.553 167.38 630.648 167.306 630.752C166.814 631.421 166.089 631.886 165.27 632.059C164.451 632.232 163.594 632.101 162.863 631.69C162.752 631.625 162.633 631.574 162.509 631.536C162.155 631.435 161.778 631.449 161.433 631.576C161.089 631.703 160.796 631.936 160.597 632.242C160.399 632.547 160.305 632.908 160.331 633.272C160.356 633.635 160.499 633.981 160.739 634.259C160.824 634.355 160.921 634.441 161.027 634.515C161.706 635.005 162.18 635.724 162.36 636.535C162.539 637.346 162.411 638.192 162 638.912C161.935 639.022 161.883 639.139 161.846 639.262C161.745 639.611 161.761 639.984 161.891 640.325C162.022 640.666 162.259 640.958 162.569 641.156C162.879 641.354 163.245 641.448 163.612 641.425C163.98 641.401 164.329 641.262 164.609 641.026C164.706 640.942 164.792 640.847 164.866 640.743C165.358 640.074 166.083 639.609 166.902 639.436C167.721 639.263 168.578 639.394 169.309 639.805C169.42 639.87 169.539 639.921 169.663 639.959C170.017 640.06 170.394 640.046 170.739 639.919C171.083 639.792 171.376 639.559 171.575 639.253C171.773 638.948 171.867 638.587 171.841 638.223C171.816 637.86 171.673 637.514 171.433 637.236C171.348 637.14 171.251 637.054 171.145 636.98Z" fill="#F55F44"/>
<path opacity="0.5" d="M403.195 656.634C402.516 656.144 402.042 655.425 401.862 654.614C401.683 653.803 401.811 652.957 402.222 652.237C402.287 652.127 402.339 652.009 402.376 651.887C402.477 651.538 402.461 651.165 402.331 650.824C402.2 650.482 401.962 650.191 401.652 649.993C401.342 649.795 400.977 649.701 400.609 649.724C400.242 649.747 399.893 649.887 399.613 650.122C399.516 650.206 399.43 650.302 399.356 650.406C398.864 651.074 398.139 651.54 397.32 651.713C396.501 651.886 395.644 651.755 394.913 651.344C394.801 651.279 394.683 651.228 394.559 651.19C394.205 651.089 393.828 651.102 393.483 651.23C393.139 651.357 392.846 651.59 392.647 651.896C392.448 652.201 392.355 652.562 392.38 652.925C392.406 653.289 392.549 653.635 392.789 653.912C392.874 654.009 392.971 654.095 393.076 654.169C393.755 654.659 394.23 655.378 394.409 656.188C394.589 656.999 394.461 657.846 394.049 658.566C393.984 658.676 393.933 658.793 393.895 658.915C393.795 659.265 393.811 659.638 393.941 659.979C394.071 660.32 394.309 660.611 394.619 660.809C394.929 661.007 395.295 661.102 395.662 661.078C396.03 661.055 396.379 660.915 396.658 660.68C396.755 660.596 396.842 660.501 396.916 660.397C397.408 659.728 398.133 659.263 398.952 659.09C399.771 658.917 400.628 659.048 401.359 659.458C401.47 659.523 401.589 659.575 401.713 659.613C402.067 659.714 402.444 659.7 402.788 659.573C403.133 659.446 403.426 659.213 403.625 658.907C403.823 658.602 403.917 658.24 403.891 657.877C403.866 657.514 403.723 657.168 403.483 656.89C403.398 656.794 403.301 656.708 403.195 656.634Z" fill="#3AD29F"/>
<path opacity="0.5" d="M583.849 256.269C583.17 255.779 582.696 255.06 582.517 254.249C582.337 253.438 582.465 252.592 582.877 251.871C582.942 251.761 582.993 251.644 583.03 251.522C583.131 251.173 583.115 250.8 582.985 250.458C582.855 250.117 582.617 249.826 582.307 249.628C581.997 249.43 581.631 249.336 581.264 249.359C580.896 249.382 580.547 249.522 580.267 249.757C580.171 249.841 580.084 249.936 580.01 250.041C579.518 250.709 578.793 251.174 577.974 251.348C577.155 251.521 576.298 251.389 575.567 250.979C575.456 250.914 575.337 250.862 575.213 250.825C574.859 250.723 574.482 250.737 574.137 250.864C573.793 250.991 573.5 251.225 573.301 251.53C573.103 251.836 573.009 252.197 573.035 252.56C573.06 252.924 573.203 253.27 573.443 253.547C573.528 253.644 573.625 253.729 573.731 253.803C574.41 254.294 574.884 255.012 575.063 255.823C575.243 256.634 575.115 257.48 574.704 258.201C574.639 258.311 574.587 258.428 574.55 258.55C574.449 258.9 574.465 259.273 574.595 259.614C574.726 259.955 574.963 260.246 575.273 260.444C575.583 260.642 575.949 260.737 576.316 260.713C576.684 260.69 577.033 260.55 577.313 260.315C577.41 260.231 577.496 260.136 577.57 260.032C578.062 259.363 578.787 258.898 579.606 258.725C580.425 258.552 581.282 258.683 582.013 259.093C582.124 259.158 582.243 259.21 582.367 259.247C582.721 259.349 583.098 259.335 583.443 259.208C583.787 259.081 584.08 258.847 584.279 258.542C584.477 258.236 584.571 257.875 584.545 257.512C584.52 257.149 584.377 256.803 584.137 256.525C584.052 256.429 583.955 256.343 583.849 256.269Z" fill="#F55F44"/>
<path opacity="0.5" d="M816.086 313.621C815.407 313.131 814.933 312.412 814.753 311.601C814.574 310.79 814.702 309.944 815.113 309.224C815.178 309.114 815.23 308.996 815.267 308.874C815.368 308.525 815.352 308.152 815.222 307.811C815.091 307.469 814.853 307.178 814.543 306.98C814.233 306.782 813.868 306.688 813.5 306.711C813.133 306.735 812.784 306.874 812.504 307.11C812.407 307.194 812.321 307.289 812.247 307.393C811.754 308.062 811.03 308.527 810.211 308.7C809.391 308.873 808.535 308.742 807.804 308.331C807.692 308.266 807.573 308.215 807.45 308.177C807.096 308.076 806.718 308.09 806.374 308.217C806.03 308.344 805.737 308.577 805.538 308.883C805.339 309.188 805.246 309.549 805.271 309.912C805.297 310.276 805.44 310.622 805.679 310.9C805.765 310.996 805.862 311.082 805.967 311.156C806.646 311.646 807.121 312.365 807.3 313.176C807.479 313.986 807.351 314.833 806.94 315.553C806.875 315.663 806.823 315.78 806.786 315.902C806.686 316.252 806.701 316.625 806.832 316.966C806.962 317.307 807.2 317.598 807.51 317.796C807.82 317.994 808.186 318.089 808.553 318.066C808.92 318.042 809.27 317.903 809.549 317.667C809.646 317.583 809.733 317.488 809.807 317.384C810.299 316.715 811.024 316.25 811.843 316.077C812.662 315.904 813.518 316.035 814.249 316.446C814.361 316.51 814.48 316.562 814.604 316.6C814.958 316.701 815.335 316.687 815.679 316.56C816.024 316.433 816.317 316.2 816.515 315.894C816.714 315.589 816.808 315.228 816.782 314.864C816.757 314.501 816.613 314.155 816.374 313.877C816.288 313.781 816.192 313.695 816.086 313.621Z" fill="#F55F44"/>
<path opacity="0.5" d="M425.097 485.464C424.418 484.974 423.943 484.255 423.764 483.445C423.585 482.634 423.713 481.787 424.124 481.067C424.189 480.957 424.241 480.84 424.278 480.718C424.379 480.368 424.363 479.995 424.232 479.654C424.102 479.313 423.864 479.022 423.554 478.824C423.244 478.626 422.878 478.531 422.511 478.555C422.144 478.578 421.794 478.717 421.515 478.953C421.418 479.037 421.331 479.132 421.257 479.236C420.765 479.905 420.04 480.37 419.221 480.543C418.402 480.716 417.546 480.585 416.815 480.175C416.703 480.11 416.584 480.058 416.46 480.02C416.106 479.919 415.729 479.933 415.385 480.06C415.04 480.187 414.747 480.42 414.549 480.726C414.35 481.031 414.256 481.392 414.282 481.756C414.307 482.119 414.451 482.465 414.69 482.743C414.776 482.839 414.872 482.925 414.978 482.999C415.657 483.489 416.131 484.208 416.311 485.019C416.49 485.83 416.362 486.676 415.951 487.396C415.886 487.506 415.834 487.624 415.797 487.746C415.696 488.095 415.712 488.468 415.842 488.809C415.973 489.151 416.211 489.442 416.521 489.64C416.831 489.838 417.196 489.932 417.564 489.909C417.931 489.886 418.28 489.746 418.56 489.511C418.657 489.426 418.743 489.331 418.817 489.227C419.31 488.559 420.034 488.093 420.853 487.92C421.673 487.747 422.529 487.878 423.26 488.289C423.372 488.354 423.491 488.405 423.614 488.443C423.968 488.544 424.346 488.531 424.69 488.404C425.034 488.276 425.327 488.043 425.526 487.737C425.725 487.432 425.818 487.071 425.793 486.708C425.767 486.344 425.624 485.998 425.385 485.72C425.299 485.624 425.202 485.538 425.097 485.464Z" fill="#F55F44"/>
<path d="M731.272 410.191L734.343 337.633L467.666 325.198L455.61 610.063C455.035 623.666 459.949 636.966 469.273 647.039C478.597 657.111 491.566 663.13 505.328 663.772L668.228 671.368C675.042 671.685 681.846 670.673 688.25 668.389C694.655 666.105 700.535 662.594 705.554 658.056C710.574 653.518 714.636 648.043 717.507 641.941C720.378 635.84 722.002 629.234 722.287 622.498L723.731 588.371C747.636 589.486 770.958 581.168 788.568 565.249C806.178 549.329 816.633 527.112 817.633 503.484C818.633 479.856 810.096 456.752 793.9 439.257C777.704 421.761 755.176 411.306 731.272 410.191ZM724.625 567.246L730.378 431.315C739.408 431.736 748.275 433.91 756.474 437.715C764.672 441.519 772.041 446.879 778.159 453.488C784.277 460.097 789.026 467.826 792.132 476.233C795.239 484.64 796.644 493.562 796.266 502.487C795.888 511.413 793.736 520.169 789.931 528.254C786.126 536.339 780.744 543.595 774.091 549.609C767.439 555.622 759.646 560.275 751.159 563.301C742.671 566.328 733.655 567.668 724.625 567.246L724.625 567.246Z" fill="#00FFF0"/>
<path d="M699.613 344.296L494.262 334.721L488.898 461.467L694.249 471.043L699.613 344.296Z" fill="white"/>
<path opacity="0.03" d="M748.342 334.445C746.91 313.428 681.15 300.355 601.463 305.244C521.776 310.134 458.338 331.135 459.77 352.151C460.644 364.969 485.454 374.829 522.75 379.465C520.282 384.497 519.693 390.239 521.085 395.679C522.477 401.119 525.762 405.91 530.363 409.21C534.963 412.509 540.584 414.105 546.237 413.718C551.891 413.33 557.214 410.984 561.271 407.091C566.119 426.648 578.175 440.418 591.301 439.613C605.666 438.732 616.395 420.696 617.063 397.91C622.693 404.674 629.877 408.586 637.451 408.122C646.685 407.555 654.461 400.608 659.061 390.272C663.889 394.378 669.468 396.604 675.279 396.247C682.725 395.79 689.227 391.188 693.877 384.004C696.196 400.813 707.364 413.385 719.861 412.618C733.142 411.803 742.893 396.235 741.64 377.845C740.975 368.081 737.34 359.485 732.09 353.691C742.872 347.606 748.79 341.026 748.342 334.445Z" fill="black"/>
<path d="M491.503 399.931C491.503 399.931 539.397 390.201 580.973 419.747C622.55 449.294 696.853 409.506 696.853 409.506L694.251 470.999L546.621 483.484L507.132 470.6L491.503 399.931Z" fill="#FFA85A"/>
<path d="M687.33 634.527L481.98 624.952L491.503 399.931C549.929 449.774 618.379 452.966 696.853 409.506L687.33 634.527Z" fill="#FFA85A"/>
<path d="M516.754 455.695C512.575 455.952 513.005 462.376 517.192 462.119C521.371 461.863 520.94 455.439 516.754 455.695Z" fill="#FAFAFA"/>
<path d="M578.715 597.545C574.536 597.801 574.967 604.226 579.153 603.969C583.332 603.712 582.902 597.288 578.715 597.545Z" fill="#FAFAFA"/>
<path d="M544.809 540.748C540.63 541.004 541.061 547.429 545.247 547.172C549.426 546.915 548.995 540.491 544.809 540.748Z" fill="#FAFAFA"/>
<path d="M589.534 495.9C585.355 496.156 585.786 502.581 589.972 502.324C594.151 502.067 593.72 495.643 589.534 495.9Z" fill="#FAFAFA"/>
<path d="M675.797 481.517C671.617 481.773 672.048 488.198 676.234 487.941C680.414 487.684 679.983 481.26 675.797 481.517Z" fill="#FAFAFA"/>
<path d="M93.574 249.083C84.4555 270.904 84.4974 295.458 93.6904 317.345C102.883 339.232 120.475 356.658 142.594 365.789L129.424 397.306C124.174 409.868 124.198 424.004 129.491 436.604C134.783 449.204 144.91 459.237 157.644 464.494L308.381 526.724C314.686 529.327 321.442 530.679 328.262 530.704C335.082 530.729 341.833 529.425 348.129 526.867C354.426 524.31 360.144 520.548 364.959 515.798C369.773 511.047 373.589 505.401 376.188 499.181L486.122 236.106L239.358 134.232L211.356 201.24C189.237 192.108 164.401 192.018 142.313 200.991C120.224 209.963 102.692 227.262 93.574 249.083ZM113.35 257.247C116.794 249.005 121.85 241.522 128.23 235.227C134.61 228.932 142.188 223.947 150.532 220.558C158.876 217.169 167.822 215.441 176.859 215.474C185.897 215.506 194.849 217.299 203.204 220.748L150.746 346.281C133.872 339.315 120.452 326.02 113.438 309.323C106.425 292.626 106.393 273.894 113.35 257.247Z" fill="#FF0404"/>
<path d="M219.065 272.048L409.083 350.495L457.997 233.444L267.979 154.996L219.065 272.048Z" fill="white"/>
<path opacity="0.03" d="M228.033 125.406C238.246 106.982 303.341 123.041 373.427 161.275C443.513 199.509 492.05 245.439 481.837 263.863C475.608 275.1 448.958 273.503 413.218 261.878C413.318 267.483 411.416 272.932 407.847 277.268C404.278 281.604 399.271 284.548 393.705 285.584C388.14 286.62 382.373 285.681 377.418 282.932C372.463 280.183 368.638 275.8 366.615 270.553C353.928 286.206 337.169 293.561 325.625 287.264C312.99 280.371 310.925 259.488 319.988 238.57C312.019 242.307 303.854 242.802 297.193 239.168C289.071 234.737 284.977 225.148 285.197 213.837C279.083 215.507 273.086 215.155 267.976 212.367C261.426 208.794 257.492 201.869 256.328 193.39C247.097 207.628 231.651 214.275 220.659 208.278C208.978 201.906 206.753 183.671 215.689 167.55C220.434 158.991 227.372 152.748 234.585 149.729C227.402 139.645 224.834 131.176 228.033 125.406Z" fill="black"/>
<path d="M232.656 117.066C242.869 98.6418 307.964 114.701 378.05 152.935C448.136 191.169 496.673 237.099 486.46 255.523C480.231 266.76 453.581 265.164 417.841 253.539C417.941 259.143 416.039 264.592 412.47 268.928C408.901 273.264 403.894 276.209 398.328 277.245C392.763 278.281 386.995 277.341 382.041 274.592C377.086 271.843 373.261 267.46 371.238 262.213C358.551 277.866 341.792 285.222 330.248 278.924C317.613 272.032 315.548 251.148 324.611 230.23C316.642 233.967 308.477 234.462 301.816 230.828C293.694 226.397 289.6 216.808 289.82 205.497C283.706 207.167 277.709 206.815 272.599 204.027C266.049 200.454 262.115 193.529 260.951 185.05C251.72 199.288 236.274 205.935 225.282 199.938C213.601 193.566 211.376 175.332 220.312 159.211C225.057 150.651 231.995 144.408 239.208 141.389C232.025 131.305 229.457 122.836 232.656 117.066Z" fill="url(#paint0_linear)"/>
<path d="M464.814 299.484C466.942 278.526 533.099 267.639 612.58 275.167C692.061 282.694 754.768 305.786 752.64 326.744C751.343 339.526 726.22 348.558 688.79 351.955C691.09 357.067 691.489 362.825 689.917 368.216C688.345 373.607 684.903 378.287 680.196 381.432C675.489 384.577 669.818 385.986 664.181 385.411C658.543 384.836 653.301 382.315 649.375 378.29C643.881 397.675 631.375 411.039 618.284 409.799C603.956 408.442 593.83 390.061 593.918 367.265C588.066 373.839 580.757 377.511 573.203 376.795C563.992 375.923 556.451 368.722 552.196 358.24C547.235 362.183 541.585 364.223 535.789 363.674C528.362 362.97 522.017 358.155 517.606 350.821C514.732 367.544 503.154 379.739 490.689 378.558C477.442 377.304 468.212 361.421 470.074 343.083C471.063 333.346 474.98 324.875 480.42 319.258C469.845 312.82 464.148 306.047 464.814 299.484Z" fill="url(#paint1_linear)"/>
<path d="M432.831 293.668C432.831 293.668 393.589 264.538 343.405 273.656C293.22 282.774 242.814 215.221 242.814 215.221L219.083 272.01L347.472 345.947L388.697 351.032L432.831 293.668Z" fill="#DCA778"/>
<path d="M155.975 423.029L345.992 501.476L432.831 293.668C358.778 314.017 295.439 287.868 242.814 215.221L155.975 423.029Z" fill="#DCA778"/>
<path d="M386.308 333.453C389.984 335.458 386.868 341.093 383.186 339.085C379.51 337.079 382.626 331.444 386.308 333.453Z" fill="#FAFAFA"/>
<path d="M270.02 435.618C273.696 437.624 270.581 443.258 266.899 441.25C263.223 439.245 266.339 433.61 270.02 435.618Z" fill="#FAFAFA"/>
<path d="M324.82 398.57C328.496 400.575 325.38 406.21 321.698 404.202C318.022 402.196 321.138 396.562 324.82 398.57Z" fill="#FAFAFA"/>
<path d="M303.345 338.984C307.021 340.989 303.906 346.624 300.224 344.615C296.548 342.61 299.663 336.975 303.345 338.984Z" fill="#FAFAFA"/>
<path d="M231.332 289.363C235.008 291.369 231.892 297.003 228.21 294.995C224.535 292.99 227.65 287.355 231.332 289.363Z" fill="#FAFAFA"/>
</g>
<defs>
<linearGradient id="paint0_linear" x1="369.226" y1="132.917" x2="336.262" y2="280.982" gradientUnits="userSpaceOnUse">
<stop stop-color="white"/>
<stop offset="1" stop-color="#FFA85A"/>
</linearGradient>
<linearGradient id="paint1_linear" x1="596.583" y1="260.245" x2="624.622" y2="409.321" gradientUnits="userSpaceOnUse">
<stop stop-color="white"/>
<stop offset="1" stop-color="#FFA85A"/>
</linearGradient>
<clipPath id="clip0">
<rect width="783.098" height="679.084" fill="white" transform="translate(147.574 0.144958) rotate(12.5513)"/>
</clipPath>
</defs>
</svg>
