<svg width="64" height="64" viewBox="0 0 126 126" fill="none" xmlns="http://www.w3.org/2000/svg">
<circle cx="63" cy="63" r="63" fill="black"/>
<mask id="mask0" mask-type="alpha" maskUnits="userSpaceOnUse" x="10" y="44" width="108" height="45">
<path d="M29.541 55.786C33.4743 55.786 36.6407 56.966 39.04 59.326C41.4787 61.686 42.698 65.1867 42.698 69.828V88H33.494V71.244C33.494 68.7267 32.9433 66.8583 31.842 65.639C30.7407 64.3803 29.1477 63.751 27.063 63.751C24.7423 63.751 22.8937 64.4787 21.517 65.934C20.1403 67.35 19.452 69.474 19.452 72.306V88H10.248V44.222H19.452V59.562C20.6713 58.3427 22.1463 57.4183 23.877 56.789C25.6077 56.1203 27.4957 55.786 29.541 55.786ZM79.6629 80.212V88H48.4519V81.805L64.3819 66.76C66.0732 65.1473 67.2139 63.7707 67.8039 62.63C68.3939 61.45 68.6889 60.2897 68.6889 59.149C68.6889 57.497 68.1186 56.2383 66.9779 55.373C65.8765 54.4683 64.2442 54.016 62.0809 54.016C60.2715 54.016 58.6392 54.37 57.1839 55.078C55.7286 55.7467 54.5092 56.7693 53.5259 58.146L46.5639 53.662C48.1765 51.2627 50.3989 49.3943 53.2309 48.057C56.0629 46.6803 59.3079 45.992 62.9659 45.992C66.0339 45.992 68.7086 46.5033 70.9899 47.526C73.3106 48.5093 75.1002 49.9253 76.3589 51.774C77.6569 53.5833 78.3059 55.727 78.3059 58.205C78.3059 60.447 77.8339 62.5513 76.8899 64.518C75.9459 66.4847 74.1169 68.7267 71.4029 71.244L61.9039 80.212H79.6629ZM100.081 88.472C96.7382 88.472 93.7292 87.7837 91.0545 86.407C88.4192 84.991 86.3542 83.044 84.8595 80.566C83.3648 78.088 82.6175 75.2757 82.6175 72.129C82.6175 68.9823 83.3648 66.17 84.8595 63.692C86.3542 61.214 88.4192 59.2867 91.0545 57.91C93.7292 56.494 96.7382 55.786 100.081 55.786C103.425 55.786 106.414 56.494 109.049 57.91C111.685 59.2867 113.75 61.214 115.244 63.692C116.739 66.17 117.486 68.9823 117.486 72.129C117.486 75.2757 116.739 78.088 115.244 80.566C113.75 83.044 111.685 84.991 109.049 86.407C106.414 87.7837 103.425 88.472 100.081 88.472ZM100.081 80.92C102.441 80.92 104.369 80.1333 105.863 78.56C107.397 76.9473 108.164 74.8037 108.164 72.129C108.164 69.4543 107.397 67.3303 105.863 65.757C104.369 64.1443 102.441 63.338 100.081 63.338C97.7215 63.338 95.7745 64.1443 94.2405 65.757C92.7065 67.3303 91.9395 69.4543 91.9395 72.129C91.9395 74.8037 92.7065 76.9473 94.2405 78.56C95.7745 80.1333 97.7215 80.92 100.081 80.92Z" fill="white"/>
</mask>
<g mask="url(#mask0)">
<path d="M63.5 0L76.4096 43.5319H118.186L84.3881 70.4361L97.2977 113.968L63.5 87.0639L29.7023 113.968L42.6119 70.4361L8.81425 43.5319H50.5904L63.5 0Z" fill="#15BDBD"/>
</g>
</svg>
